# Export with Prisma3D v3.2.5
g Plane
v 21.99174 11.5636 -13.19504
v 22.94548 12.35198 -3.06994
v 14.51032 11.4607 -5.40139
v 13.19504 11.5636 -13.19504
v 13.19504 11.5636 -13.19504
v 14.51032 11.4607 -5.40139
v 5.023503 12.36549 -5.282935
v 3.68154 13.68257 -13.79658
v 3.68154 13.68257 -13.79658
v 5.023503 12.36549 -5.282935
v -4.919881 12.71909 -4.298022
v -5.0137 13.58376 -12.46809
v 21.99174 11.5636 20.03737
v 21.99174 11.5636 21.99174
v 13.19504 11.5636 21.99174
v 13.19504 11.5636 20.03737
v 13.19504 11.5636 20.03737
v 13.19504 11.5636 13.19504
v 21.99174 11.5636 13.19504
v 21.99174 11.5636 20.03737
v 13.19504 11.5636 20.03737
v 13.19504 11.5636 21.99174
v 4.321028 10.20205 21.76526
v 4.398345 11.5636 20.03737
v 4.398345 11.5636 20.03737
v 4.404041 11.56361 14.48396
v 13.19504 11.5636 13.19504
v 13.19504 11.5636 20.03737
v 4.398345 11.5636 20.03737
v 4.321028 10.20205 21.76526
v -4.473252 10.37195 21.88195
v -4.398349 11.5636 20.03737
v -4.398349 11.5636 20.03737
v -2.797467 11.70935 13.07039
v 4.404041 11.56361 14.48396
v 4.398345 11.5636 20.03737
v 31.17596 11.71958 14.62294
v 33.30977 11.71958 14.62294
v 30.78843 11.5636 20.03737
v 28.65463 11.5636 20.03737
v 28.65463 11.5636 20.03737
v 21.99174 11.5636 20.03737
v 21.99174 11.5636 13.19504
v 31.17596 11.71958 14.62294
v 28.65463 11.5636 20.03737
v 30.78843 11.5636 20.03737
v 30.78843 11.5636 21.99174
v 28.65463 11.5636 21.99174
v 28.65463 11.5636 21.99174
v 21.99174 11.5636 21.99174
v 21.99174 11.5636 20.03737
v 28.65463 11.5636 20.03737
v 36.32214 12.42729 -8.247721
v 22.94548 12.35198 -3.06994
v 21.99174 11.5636 -13.19504
v 35.23171 11.70437 -12.0439
v 35.23171 11.70437 -12.0439
v 38.00278 12.04589 -14.46763
v 41.79996 12.55852 -10.15541
v 36.32214 12.42729 -8.247721
v -4.321032 10.10377 33.74456
v -4.473252 10.37195 21.88195
v 4.321028 10.20205 21.76526
v 4.473248 9.933869 33.62788
v 4.473248 9.933869 33.62788
v 4.398345 8.742217 35.81767
v -4.398349 8.742217 35.81767
v -4.321032 10.10377 33.74456
v 4.473248 9.933869 33.62788
v 4.321028 10.20205 21.76526
v 13.19504 11.5636 21.99174
v 13.19504 11.5636 28.48886
v 13.19504 11.5636 28.48886
v 13.19504 11.5636 30.78843
v 4.398345 8.742217 35.81767
v 4.473248 9.933869 33.62788
v 13.19504 11.5636 28.48886
v 13.19504 11.5636 21.99174
v 21.99174 11.5636 21.99174
v 21.99174 11.5636 28.48886
v 21.99174 11.5636 28.48886
v 21.99174 11.5636 30.78843
v 13.19504 11.5636 30.78843
v 13.19504 11.5636 28.48886
v 21.99174 11.5636 28.48886
v 21.99174 11.5636 21.99174
v 28.65463 11.5636 21.99174
v 28.65463 19.46077 28.48886
v 28.65463 19.46077 28.48886
v 28.65463 19.46077 30.78843
v 21.99174 11.5636 30.78843
v 21.99174 11.5636 28.48886
v 28.65463 19.46077 28.48886
v 28.65463 11.5636 21.99174
v 30.78843 11.5636 21.99174
v 30.78843 19.46077 28.48886
v 30.78843 19.46077 28.48886
v 30.78843 19.46077 30.78843
v 28.65463 19.46077 30.78843
v 28.65463 19.46077 28.48886
v -13.19504 11.5636 -13.19504
v -12.42914 9.252024 -7.463422
v -21.99174 11.5636 -4.398345
v -21.99174 11.5636 -13.19504
v -13.19504 11.5636 28.48886
v -13.19504 11.5636 30.78843
v -21.99174 19.00063 30.78843
v -21.99174 19.00063 28.48886
v -21.99174 19.00063 28.48886
v -21.99174 11.5636 21.99174
v -13.19504 11.5636 21.99174
v -13.19504 11.5636 28.48886
v -13.19504 11.5636 20.03737
v -13.19504 11.5636 21.99174
v -21.99174 11.5636 21.99174
v -21.99174 11.5636 20.03737
v -21.99174 11.5636 20.03737
v -21.33794 12.42207 13.8922
v -11.4927 12.5693 13.06648
v -13.19504 11.5636 20.03737
v -21.99174 16.14951 -26.41423
v -21.99174 16.14951 -30.78843
v -13.19504 11.5636 -30.78843
v -13.19504 11.5636 -26.41423
v -13.19504 11.5636 -26.41423
v -13.19504 11.5636 -21.99174
v -21.99174 11.5636 -21.99174
v -21.99174 16.14951 -26.41423
v -4.398349 18.52847 -27.75501
v -4.398349 19.63793 -30.78843
v 4.398345 19.63793 -30.78843
v 4.398345 18.52847 -27.75501
v 4.398345 18.52847 -27.75501
v 4.398345 12.67307 -20.65096
v -4.398349 12.67307 -20.65096
v -4.398349 18.52847 -27.75501
v 4.398345 18.52847 -27.75501
v 4.398345 19.63793 -30.78843
v 13.19504 11.5636 -30.78843
v 13.19504 11.5636 -26.41423
v 13.19504 11.5636 -26.41423
v 13.19504 11.5636 -21.99174
v 4.398345 12.67307 -20.65096
v 4.398345 18.52847 -27.75501
v 13.19504 11.5636 -26.41423
v 13.19504 11.5636 -30.78843
v 21.99174 11.5636 -30.78843
v 21.99174 11.5636 -26.41423
v 21.99174 11.5636 -26.41423
v 21.99174 11.5636 -21.99174
v 13.19504 11.5636 -21.99174
v 13.19504 11.5636 -26.41423
v 21.99174 11.5636 -26.41423
v 21.99174 11.5636 -30.78843
v 34.91806 19.16296 -36.10844
v 34.91806 19.16296 -26.71462
v 34.91806 19.16296 -26.71462
v 35.21703 10.5718 -24.0865
v 21.99174 11.5636 -21.99174
v 21.99174 11.5636 -26.41423
v 34.91806 19.16296 -26.71462
v 34.91806 19.16296 -36.10844
v 39.50051 19.16296 -36.10844
v 39.50051 19.16296 -26.71462
v 39.50051 19.16296 -26.71462
v 38.69879 10.75307 -25.31714
v 35.21703 10.5718 -24.0865
v 34.91806 19.16296 -26.71462
v 35.21703 10.5718 -24.0865
v 38.69879 10.75307 -25.31714
v 38.00278 12.04589 -14.46763
v 35.23171 11.70437 -12.0439
v 35.23171 11.70437 -12.0439
v 21.99174 11.5636 -13.19504
v 21.99174 11.5636 -21.99174
v 35.21703 10.5718 -24.0865
v 21.99174 11.5636 -21.99174
v 21.99174 11.5636 -13.19504
v 13.19504 11.5636 -13.19504
v 13.19504 11.5636 -21.99174
v 13.19504 11.5636 -21.99174
v 13.19504 11.5636 -13.19504
v 3.68154 13.68257 -13.79658
v 4.398345 12.67307 -20.65096
v 4.398345 12.67307 -20.65096
v 3.68154 13.68257 -13.79658
v -5.0137 13.58376 -12.46809
v -4.398349 12.67307 -20.65096
v -13.19504 11.5636 -21.99174
v -13.19504 11.5636 -13.19504
v -21.99174 11.5636 -13.19504
v -21.99174 11.5636 -21.99174
v -28.33706 17.4798 -13.19504
v -21.99174 11.5636 -13.19504
v -21.99174 11.5636 -4.398345
v -27.99187 17.87952 -4.714839
v -25.62456 13.03062 15.98318
v -21.33794 12.42207 13.8922
v -21.99174 11.5636 20.03737
v -28.33706 11.5636 20.03737
v -28.33706 11.5636 20.03737
v -21.99174 11.5636 20.03737
v -21.99174 11.5636 21.99174
v -28.33706 11.5636 21.99174
v -28.33706 11.5636 21.99174
v -21.99174 11.5636 21.99174
v -21.99174 19.00063 28.48886
v -26.40783 17.53805 28.48886
v -26.40783 17.53805 28.48886
v -21.99174 19.00063 28.48886
v -21.99174 19.00063 30.78843
v -26.40783 17.53805 30.78843
v -28.33706 11.5636 -21.99174
v -21.99174 11.5636 -21.99174
v -21.99174 11.5636 -13.19504
v -28.33706 17.4798 -13.19504
v -28.33706 16.14951 -26.41423
v -21.99174 16.14951 -26.41423
v -21.99174 11.5636 -21.99174
v -28.33706 11.5636 -21.99174
v -28.33706 16.14951 -30.78843
v -21.99174 16.14951 -30.78843
v -21.99174 16.14951 -26.41423
v -28.33706 16.14951 -26.41423
v -30.932 11.9271 28.01805
v -26.40783 17.53805 28.48886
v -26.40783 17.53805 30.78843
v -29.60701 12.54207 29.79408
v -29.60701 12.54207 29.79408
v -31.77216 12.97561 31.25924
v -33.09715 12.36064 29.48321
v -30.932 11.9271 28.01805
v -30.932 11.9271 28.01805
v -33.09715 12.36064 29.48321
v -30.78843 11.5636 21.99174
v -30.12524 11.5636 21.99174
v -30.12524 11.5636 21.99174
v -28.33706 11.5636 21.99174
v -26.40783 17.53805 28.48886
v -30.932 11.9271 28.01805
v -30.12524 11.5636 21.99174
v -30.78843 11.5636 21.99174
v -30.78843 11.5636 20.03737
v -30.12524 11.5636 20.03737
v -30.12524 11.5636 20.03737
v -28.33706 11.5636 20.03737
v -28.33706 11.5636 21.99174
v -30.12524 11.5636 21.99174
v -30.12524 11.5636 20.03737
v -30.78843 11.5636 20.03737
v -32.04303 12.99135 16.2184
v -30.30659 13.00197 16.15476
v -30.30659 13.00197 16.15476
v -25.62456 13.03062 15.98318
v -28.33706 11.5636 20.03737
v -30.12524 11.5636 20.03737
v -34.20437 22.21745 -8.092194
v -31.06911 17.7699 -5.190348
v -33.20422 18.24742 -13.83804
v -30.17136 15.58917 -12.17838
v -30.17136 15.58917 -12.17838
v -28.33706 17.4798 -13.19504
v -27.99187 17.87952 -4.714839
v -34.20437 22.21745 -8.092194
v -30.17136 15.58917 -12.17838
v -33.20422 18.24742 -13.83804
v -30.78843 11.5636 -21.99174
v -30.12524 11.5636 -21.99174
v -30.12524 11.5636 -21.99174
v -28.33706 11.5636 -21.99174
v -28.33706 17.4798 -13.19504
v -30.17136 15.58917 -12.17838
v -30.12524 11.5636 -21.99174
v -30.78843 11.5636 -21.99174
v -30.78843 11.5636 -26.41423
v -30.12524 12.80427 -26.41423
v -30.12524 12.80427 -26.41423
v -28.33706 16.14951 -26.41423
v -28.33706 11.5636 -21.99174
v -30.12524 11.5636 -21.99174
v -30.12524 12.80427 -26.41423
v -30.78843 11.5636 -26.41423
v -30.78843 11.5636 -30.78843
v -30.12524 12.80427 -30.78843
v -30.12524 12.80427 -30.78843
v -28.33706 16.14951 -30.78843
v -28.33706 16.14951 -26.41423
v -30.12524 12.80427 -26.41423
v -13.57307 9.682173 1.988291
v -14.46736 11.73557 4.830086
v -22.68878 11.57934 5.240791
v -22.34767 11.57164 0.5236855
v -22.34767 11.57164 0.5236855
v -22.68878 11.57934 5.240791
v -25.49732 10.13586 1.267635
v -26.887 13.72976 -1.505126
v -26.887 13.72976 -1.505126
v -25.49732 10.13586 1.267635
v -30.17935 10.10721 1.439221
v -32.58316 13.71514 -1.368348
v -32.58316 13.71514 -1.368348
v -30.17935 10.10721 1.439221
v -31.91579 10.09659 1.502858
v -33.79439 13.70971 -1.335853
v 4.709286 11.61282 -0.4198784
v 4.404041 11.56361 5.687269
v -6.122496 10.05296 5.096534
v -5.151823 11.04289 0.3922153
v 13.35169 11.11068 -1.075674
v 12.2413 10.77523 3.069944
v 4.404041 11.56361 5.687269
v 4.709286 11.61282 -0.4198784
v 21.78685 12.00196 1.255775
v 20.67646 11.6665 5.401392
v 12.2413 10.77523 3.069944
v 13.35169 11.11068 -1.075674
v 38.74495 12.31658 1.74674
v 34.18212 11.48447 9.186978
v 20.67646 11.6665 5.401392
v 21.78685 12.00196 1.255775
v 40.99286 13.03611 2.253524
v 38.19999 11.89175 9.783645
v 34.18212 11.48447 9.186978
v 38.74495 12.31658 1.74674
v -30.30659 13.00197 16.15476
v -32.04303 12.99135 16.2184
v -31.91579 10.09659 1.502858
v -30.17935 10.10721 1.439221
v -30.17935 10.10721 1.439221
v -25.49732 10.13586 1.267635
v -25.62456 13.03062 15.98318
v -30.30659 13.00197 16.15476
v -25.49732 10.13586 1.267635
v -22.68878 11.57934 5.240791
v -21.33794 12.42207 13.8922
v -25.62456 13.03062 15.98318
v -14.46736 11.73557 4.830086
v -11.4927 12.5693 13.06648
v -21.33794 12.42207 13.8922
v -22.68878 11.57934 5.240791
v 4.404041 11.56361 5.687269
v 4.404041 11.56361 14.48396
v -2.797467 11.70935 13.07039
v -6.122496 10.05296 5.096534
v 12.2413 10.77523 3.069944
v 13.19504 11.5636 13.19504
v 4.404041 11.56361 14.48396
v 4.404041 11.56361 5.687269
v 34.18212 11.48447 9.186978
v 38.19999 11.89175 9.783645
v 33.30977 11.71958 14.62294
v 31.17596 11.71958 14.62294
v 31.17596 11.71958 14.62294
v 21.99174 11.5636 13.19504
v 20.67646 11.6665 5.401392
v 34.18212 11.48447 9.186978
v 20.67646 11.6665 5.401392
v 21.99174 11.5636 13.19504
v 13.19504 11.5636 13.19504
v 12.2413 10.77523 3.069944
v -6.642873 13.18148 -12.61285
v -5.0137 13.58376 -12.46809
v -4.919881 12.71909 -4.298022
v -6.824121 13.11716 -4.260195
v -6.150059 12.45214 -20.91795
v -4.398349 12.67307 -20.65096
v -5.0137 13.58376 -12.46809
v -6.642873 13.18148 -12.61285
v -6.150059 17.14154 -27.48801
v -4.398349 18.52847 -27.75501
v -4.398349 12.67307 -20.65096
v -6.150059 12.45214 -20.91795
v -6.150059 18.03007 -30.78843
v -4.398349 19.63793 -30.78843
v -4.398349 18.52847 -27.75501
v -6.150059 17.14154 -27.48801
v -7.010326 11.70215 0.6076982
v -5.151823 11.04289 0.3922153
v -6.122496 10.05296 5.096534
v -8.119259 9.782391 4.46434
v -8.119259 9.782391 4.46434
v -6.122496 10.05296 5.096534
v -2.797467 11.70935 13.07039
v -4.59087 11.60888 12.28891
v -4.59087 11.60888 12.28891
v -2.797467 11.70935 13.07039
v -4.398349 11.5636 20.03737
v -6.150059 11.5636 20.03737
v -6.150059 11.5636 20.03737
v -4.398349 11.5636 20.03737
v -4.473252 10.37195 21.88195
v -6.210046 10.60925 21.90381
v -6.210046 10.60925 21.90381
v -4.473252 10.37195 21.88195
v -4.321032 10.10377 33.74456
v -6.088138 10.39447 32.69798
v -6.088138 10.39447 32.69798
v -4.321032 10.10377 33.74456
v -4.398349 8.742217 35.81767
v -6.150059 9.304048 34.81618
v -8.99148 9.748741 -7.246089
v -12.42914 9.252024 -7.463422
v -13.19504 11.5636 -13.19504
v -10.23877 12.29358 -12.93236
v -10.23877 12.29358 -12.93236
v -6.642873 13.18148 -12.61285
v -6.824121 13.11716 -4.260195
v -8.99148 9.748741 -7.246089
v -10.23877 12.29358 -12.93236
v -13.19504 11.5636 -13.19504
v -13.19504 11.5636 -21.99174
v -10.01641 11.9645 -21.50726
v -10.01641 11.9645 -21.50726
v -6.150059 12.45214 -20.91795
v -6.642873 13.18148 -12.61285
v -10.23877 12.29358 -12.93236
v -10.01641 11.9645 -21.50726
v -13.19504 11.5636 -21.99174
v -13.19504 11.5636 -26.41423
v -10.01641 14.08031 -26.89871
v -10.01641 14.08031 -26.89871
v -6.150059 17.14154 -27.48801
v -6.150059 12.45214 -20.91795
v -10.01641 11.9645 -21.50726
v -10.01641 14.08031 -26.89871
v -13.19504 11.5636 -26.41423
v -13.19504 11.5636 -30.78843
v -10.01641 14.48121 -30.78843
v -10.01641 14.48121 -30.78843
v -6.150059 18.03007 -30.78843
v -6.150059 17.14154 -27.48801
v -10.01641 14.08031 -26.89871
v -10.2184 9.704955 1.883251
v -7.010326 11.70215 0.6076982
v -8.119259 9.782391 4.46434
v -11.19224 11.30435 4.416126
v -11.19224 11.30435 4.416126
v -14.46736 11.73557 4.830086
v -13.57307 9.682173 1.988291
v -10.2184 9.704955 1.883251
v -11.19224 11.30435 4.416126
v -8.119259 9.782391 4.46434
v -4.59087 11.60888 12.28891
v -8.69258 11.89675 12.79728
v -8.69258 11.89675 12.79728
v -11.4927 12.5693 13.06648
v -14.46736 11.73557 4.830086
v -11.19224 11.30435 4.416126
v -8.69258 11.89675 12.79728
v -4.59087 11.60888 12.28891
v -6.150059 11.5636 20.03737
v -10.01641 11.5636 20.03737
v -10.01641 11.5636 20.03737
v -13.19504 11.5636 20.03737
v -11.4927 12.5693 13.06648
v -8.69258 11.89675 12.79728
v -10.01641 11.5636 20.03737
v -6.150059 11.5636 20.03737
v -6.210046 10.60925 21.90381
v -10.04348 11.13301 21.95207
v -10.04348 11.13301 21.95207
v -13.19504 11.5636 21.99174
v -13.19504 11.5636 20.03737
v -10.01641 11.5636 20.03737
v -10.04348 11.13301 21.95207
v -6.210046 10.60925 21.90381
v -6.088138 10.39447 32.69798
v -9.988476 11.0361 30.38797
v -9.988476 11.0361 30.38797
v -13.19504 11.5636 28.48886
v -13.19504 11.5636 21.99174
v -10.04348 11.13301 21.95207
v -9.988476 11.0361 30.38797
v -6.088138 10.39447 32.69798
v -6.150059 9.304048 34.81618
v -10.01641 10.54411 32.60571
v -10.01641 10.54411 32.60571
v -13.19504 11.5636 30.78843
v -13.19504 11.5636 28.48886
v -9.988476 11.0361 30.38797
v -9.831223 8.575036 0.129276
v -10.2184 9.704955 1.883251
v -13.57307 9.682173 1.988291
v -13.2185 8.366047 0.1076568
v -13.2185 8.366047 0.1076568
v -13.57307 9.682173 1.988291
v -22.34767 11.57164 0.5236855
v -22.20783 11.56848 -1.410157
v -22.20783 11.56848 -1.410157
v -22.34767 11.57164 0.5236855
v -26.887 13.72976 -1.505126
v -27.45672 15.20314 -2.641859
v -27.45672 15.20314 -2.641859
v -26.887 13.72976 -1.505126
v -32.58316 13.71514 -1.368348
v -32.57231 15.19426 -2.539504
v -32.57231 15.19426 -2.539504
v -32.58316 13.71514 -1.368348
v -33.79439 13.70971 -1.335853
v -33.56821 15.19097 -2.519776
v -6.6828 12.08035 -0.9630268
v -7.010326 11.70215 0.6076982
v -10.2184 9.704955 1.883251
v -9.831223 8.575036 0.129276
v -4.806326 11.52371 -1.108709
v -5.151823 11.04289 0.3922153
v -7.010326 11.70215 0.6076982
v -6.6828 12.08035 -0.9630268
v 4.832741 11.90854 -2.33055
v 4.709286 11.61282 -0.4198784
v -5.151823 11.04289 0.3922153
v -4.806326 11.52371 -1.108709
v 13.80691 11.2482 -2.775227
v 13.35169 11.11068 -1.075674
v 4.709286 11.61282 -0.4198784
v 4.832741 11.90854 -2.33055
v 22.24207 12.13948 -0.443778
v 21.78685 12.00196 1.255775
v 13.35169 11.11068 -1.075674
v 13.80691 11.2482 -2.775227
v 38.67454 12.43714 -0.9352928
v 38.74495 12.31658 1.74674
v 21.78685 12.00196 1.255775
v 22.24207 12.13948 -0.443778
v 42.48889 12.56519 -0.574476
v 40.99286 13.03611 2.253524
v 38.74495 12.31658 1.74674
v 38.67454 12.43714 -0.9352928
v -12.5784 8.003995 -5.689606
v -12.42914 9.252024 -7.463422
v -8.99148 9.748741 -7.246089
v -9.172498 8.319377 -5.595617
v -12.5784 8.003995 -5.689606
v -13.2185 8.366047 0.1076568
v -22.20783 11.56848 -1.410157
v -22.12792 11.56668 -2.515099
v -22.12792 11.56668 -2.515099
v -21.99174 11.5636 -4.398345
v -12.42914 9.252024 -7.463422
v -12.5784 8.003995 -5.689606
v -22.12792 11.56668 -2.515099
v -22.20783 11.56848 -1.410157
v -27.45672 15.20314 -2.641859
v -27.12913 15.64837 -2.993467
v -27.12913 15.64837 -2.993467
v -27.99187 17.87952 -4.714839
v -21.99174 11.5636 -4.398345
v -22.12792 11.56668 -2.515099
v -27.12913 15.64837 -2.993467
v -27.45672 15.20314 -2.641859
v -32.57231 15.19426 -2.539504
v -31.67079 16.82406 -3.866488
v -31.67079 16.82406 -3.866488
v -34.20437 22.21745 -8.092194
v -27.99187 17.87952 -4.714839
v -27.12913 15.64837 -2.993467
v -31.67079 16.82406 -3.866488
v -32.57231 15.19426 -2.539504
v -33.56821 15.19097 -2.519776
v -33.54126 17.55572 -4.403114
v -33.54126 17.55572 -4.403114
v -31.06911 17.7699 -5.190348
v -34.20437 22.21745 -8.092194
v -31.67079 16.82406 -3.866488
v -9.172498 8.319377 -5.595617
v -8.99148 9.748741 -7.246089
v -6.824121 13.11716 -4.260195
v -7.143079 12.74886 -2.730566
v -7.143079 12.74886 -2.730566
v -6.6828 12.08035 -0.9630268
v -9.831223 8.575036 0.129276
v -9.172498 8.319377 -5.595617
v -7.143079 12.74886 -2.730566
v -6.824121 13.11716 -4.260195
v -4.919881 12.71909 -4.298022
v -5.256338 12.25085 -2.836367
v -5.256338 12.25085 -2.836367
v -4.806326 11.52371 -1.108709
v -6.6828 12.08035 -0.9630268
v -7.143079 12.74886 -2.730566
v -5.256338 12.25085 -2.836367
v -4.919881 12.71909 -4.298022
v 5.023503 12.36549 -5.282935
v 4.903279 12.0775 -3.422253
v 4.903279 12.0775 -3.422253
v 4.832741 11.90854 -2.33055
v -4.806326 11.52371 -1.108709
v -5.256338 12.25085 -2.836367
v 4.903279 12.0775 -3.422253
v 5.023503 12.36549 -5.282935
v 14.51032 11.4607 -5.40139
v 14.06701 11.32678 -3.746303
v 14.06701 11.32678 -3.746303
v 13.80691 11.2482 -2.775227
v 4.832741 11.90854 -2.33055
v 4.903279 12.0775 -3.422253
v 14.06701 11.32678 -3.746303
v 14.51032 11.4607 -5.40139
v 22.94548 12.35198 -3.06994
v 22.50217 12.21806 -1.414854
v 22.50217 12.21806 -1.414854
v 22.24207 12.13948 -0.443778
v 13.80691 11.2482 -2.775227
v 14.06701 11.32678 -3.746303
v 22.50217 12.21806 -1.414854
v 22.94548 12.35198 -3.06994
v 36.32214 12.42729 -8.247721
v 35.40254 12.41934 -4.338962
v 35.40254 12.41934 -4.338962
v 38.67454 12.43714 -0.9352928
v 22.24207 12.13948 -0.443778
v 22.50217 12.21806 -1.414854
v 35.40254 12.41934 -4.338962
v 36.32214 12.42729 -8.247721
v 41.79996 12.55852 -10.15541
v 40.93168 12.52976 -5.661798
v 40.93168 12.52976 -5.661798
v 42.48889 12.56519 -0.574476
v 38.67454 12.43714 -0.9352928
v 35.40254 12.41934 -4.338962
v -9.172498 8.319377 -5.595617
v -9.831223 8.575036 0.129276
v -11.03562 8.385891 -2.431013
v -10.9583 8.388627 -3.127464
v -9.831223 8.575036 0.129276
v -13.2185 8.366047 0.1076568
v -11.44903 8.394342 -2.435735
v -11.03562 8.385891 -2.431013
v -13.2185 8.366047 0.1076568
v -12.5784 8.003995 -5.689606
v -11.36879 8.316225 -3.136742
v -11.44903 8.394342 -2.435735
v -12.5784 8.003995 -5.689606
v -9.172498 8.319377 -5.595617
v -10.9583 8.388627 -3.127464
v -11.36879 8.316225 -3.136742
v -10.9583 8.388627 -3.127464
v -11.03562 8.385891 -2.431013
v -11.10117 9.247701 -2.484557
v -11.02385 9.250437 -3.181009
v -11.03562 8.385891 -2.431013
v -11.44903 8.394342 -2.435735
v -11.51458 9.256153 -2.48928
v -11.10117 9.247701 -2.484557
v -11.44903 8.394342 -2.435735
v -11.36879 8.316225 -3.136742
v -11.43434 9.178036 -3.190286
v -11.51458 9.256153 -2.48928
v -11.36879 8.316225 -3.136742
v -10.9583 8.388627 -3.127464
v -11.02385 9.250437 -3.181009
v -11.43434 9.178036 -3.190286
v -11.02385 9.250437 -3.181009
v -11.10117 9.247701 -2.484557
v -11.51458 9.256153 -2.48928
v -11.43434 9.178036 -3.190286
vn -0.01093496 0.9988214 -0.0472882
vn -0.04378944 0.9990321 -0.004183955
vn 0.008345579 0.9989769 0.04444527
vn 0.07400791 0.997247 -0.004604653
vn 0.07400791 0.997247 -0.004604653
vn 0.008345579 0.9989769 0.04444527
vn 0.0831292 0.9875181 0.1337818
vn 0.07670934 0.9970114 -0.009157735
vn 0.07670934 0.9970114 -0.009157735
vn 0.0831292 0.9875181 0.1337818
vn 0.06641766 0.9807172 0.1838004
vn -0.04280274 0.9990702 -0.005178364
vn -0.002311912 0.9999928 0.00301765
vn 0 1 0
vn -0.06121416 0.9945641 0.08423278
vn -0.0192337 0.9964216 0.08230442
vn -0.0192337 0.9964216 0.08230442
vn -0.002866295 0.999849 -0.01714
vn -0.01301226 0.999892 -0.006831031
vn -0.002311912 0.9999928 0.00301765
vn -0.0192337 0.9964216 0.08230442
vn -0.06121416 0.9945641 0.08423278
vn -0.0527157 0.9679521 0.2455399
vn -0.01484601 0.9716346 0.2360208
vn -0.01484601 0.9716346 0.2360208
vn 0.001153676 0.9996393 -0.02683191
vn -0.002866295 0.999849 -0.01714
vn -0.0192337 0.9964216 0.08230442
vn -0.01484601 0.9716346 0.2360208
vn -0.0527157 0.9679521 0.2455399
vn 0.06189284 0.9551656 0.2895308
vn 0.03629239 0.8391504 0.5426873
vn -0.01233024 0.9998834 0.009019086
vn -0.02367817 0.9982843 -0.05355232
vn 0.001153676 0.9996393 -0.02683191
vn -0.01484601 0.9716346 0.2360208
vn -0.009257946 0.9999565 0.001088971
vn -0.03034401 0.9993926 -0.01713814
vn 0 0.9998696 0.01615265
vn -0.002953237 0.9999546 0.009057358
vn -0.002953237 0.9999546 0.009057358
vn -0.002311912 0.9999928 0.00301765
vn -0.01301226 0.999892 -0.006831031
vn -0.009257946 0.9999565 0.001088971
vn -0.002953237 0.9999546 0.009057358
vn 0 0.9998696 0.01615265
vn 0 1 0
vn 0 1 0
vn 0 1 0
vn 0 1 0
vn -0.002311912 0.9999928 0.00301765
vn -0.002953237 0.9999546 0.009057358
vn -0.04329623 0.9978375 -0.04945602
vn -0.04378944 0.9990321 -0.004183955
vn -0.01093496 0.9988214 -0.0472882
vn -0.0604743 0.9936662 -0.09471179
vn -0.0604743 0.9936662 -0.09471179
vn -0.1403026 0.9848006 -0.1023866
vn -0.07478383 0.9959991 -0.04891951
vn -0.04329623 0.9978375 -0.04945602
vn 0.00469734 0.9487755 0.315916
vn 0.06189284 0.9551656 0.2895308
vn -0.0527157 0.9679521 0.2455399
vn -0.05468456 0.9732464 0.2231615
vn -0.05468456 0.9732464 0.2231615
vn -0.03016906 0.9071804 0.419659
vn -0.02557326 0.8603088 0.5091314
vn 0.00469734 0.9487755 0.315916
vn -0.05468456 0.9732464 0.2231615
vn -0.0527157 0.9679521 0.2455399
vn -0.06121416 0.9945641 0.08423278
vn -0.07180941 0.9963585 0.04597082
vn -0.07180941 0.9963585 0.04597082
vn -0.05682407 0.9880447 0.1433131
vn -0.03016906 0.9071804 0.419659
vn -0.05468456 0.9732464 0.2231615
vn -0.07180941 0.9963585 0.04597082
vn -0.06121416 0.9945641 0.08423278
vn 0 1 0
vn 0 1 0
vn 0 1 0
vn 0 1 0
vn -0.05682407 0.9880447 0.1433131
vn -0.07180941 0.9963585 0.04597082
vn -0.4016073 0.8196819 -0.4084522
vn -0.4016073 0.8196819 -0.4084522
vn -0.4016073 0.8196819 -0.4084522
vn -0.4016073 0.8196819 -0.4084522
vn -0.7643079 0.6448516 0
vn -0.7643079 0.6448516 0
vn -0.7643079 0.6448516 0
vn -0.7643079 0.6448516 0
vn 0 0.6353325 -0.7722387
vn 0 0.6353325 -0.7722387
vn 0 0.6353325 -0.7722387
vn 0 0.6353325 -0.7722387
vn 0 1 0
vn 0 1 0
vn 0 1 0
vn 0 1 0
vn -0.05741075 0.9885023 0.1398832
vn 0.03186244 0.9189956 0.3929785
vn 0.4887342 0.8483111 0.2037335
vn 0.3190478 0.9471096 -0.03452497
vn 0.6456217 0.7636574 0
vn 0.6456217 0.7636574 0
vn 0.6456217 0.7636574 0
vn 0.6456217 0.7636574 0
vn 0.3233258 0.8560982 -0.4031827
vn 0.3233258 0.8560982 -0.4031827
vn 0.1388551 0.9875301 -0.07418693
vn 0.2177948 0.9696559 -0.1110536
vn 0.04281934 0.9946797 0.09369478
vn 0.1388551 0.9875301 -0.07418693
vn 0 1 0
vn 0.03971127 0.992755 0.1134043
vn 0.03971127 0.992755 0.1134043
vn -0.0223648 0.9994258 0.02545519
vn 0.0803922 0.9967526 0.004625591
vn 0.04281934 0.9946797 0.09369478
vn 0.1820107 0.9387735 0.2925348
vn 0.237974 0.9712715 0
vn 0.4622747 0.8867368 0
vn 0.3514368 0.9149234 0.1985129
vn 0.3514368 0.9149234 0.1985129
vn -0.09512907 0.9848082 0.1452699
vn 0.1601793 0.9601995 0.228822
vn 0.1820107 0.9387735 0.2925348
vn -0.2660487 0.8516495 0.4515655
vn 0 0.9391555 0.3434924
vn 0 0.9391555 0.3434924
vn 0.2813556 0.8836101 0.3742625
vn 0.2813556 0.8836101 0.3742625
vn 0.1440364 0.969626 0.1976842
vn -0.1676557 0.7710297 0.6143329
vn -0.2660487 0.8516495 0.4515655
vn 0.2813556 0.8836101 0.3742625
vn 0.636319 0.7591409 0.1371249
vn 0.636319 0.7591409 0.1371249
vn 0.261326 0.9572127 0.1243084
vn 0.261326 0.9572127 0.1243084
vn 0.1448348 0.986564 0.0755939
vn 0.1440364 0.969626 0.1976842
vn 0.2813556 0.8836101 0.3742625
vn 0.261326 0.9572127 0.1243084
vn 0 1 0
vn 0 1 0
vn 0 1 0
vn 0 1 0
vn 0.01079277 0.9998034 -0.01663692
vn 0.1448348 0.986564 0.0755939
vn 0.261326 0.9572127 0.1243084
vn -0.5068036 0.8620615 0
vn -0.5068036 0.8620616 0
vn -0.5068036 0.8620616 0
vn -0.5068036 0.8620615 0
vn -0.1306884 0.7838277 0.6070706
vn -0.1306884 0.7838277 0.6070706
vn -0.1306884 0.7838277 0.6070706
vn -0.1306884 0.7838277 0.6070706
vn 0 1 0
vn 0 1 0
vn 0 1 0
vn 0 1 0
vn 0.1601704 0.2208531 0.9620652
vn 0.1601704 0.2208531 0.9620652
vn 0.1601705 0.2208531 0.9620652
vn 0.1601704 0.2208531 0.9620652
vn -0.0755587 0.9936455 -0.08342403
vn -0.1534294 0.9820387 -0.1098156
vn -0.1403026 0.9848006 -0.1023866
vn -0.0604743 0.9936662 -0.09471179
vn -0.0604743 0.9936662 -0.09471179
vn -0.01093496 0.9988214 -0.0472882
vn 0.01079277 0.9998034 -0.01663692
vn -0.0755587 0.9936455 -0.08342403
vn 0.01079277 0.9998034 -0.01663692
vn -0.01093496 0.9988214 -0.0472882
vn 0.07400791 0.997247 -0.004604653
vn 0.1448348 0.986564 0.0755939
vn 0.1448348 0.986564 0.0755939
vn 0.07400791 0.997247 -0.004604653
vn 0.07670934 0.9970114 -0.009157735
vn 0.1440364 0.969626 0.1976842
vn 0.1440364 0.969626 0.1976842
vn 0.07670934 0.9970114 -0.009157735
vn -0.04280274 0.9990702 -0.005178364
vn -0.09294087 0.9884708 -0.1195303
vn -0.09512907 0.9848082 0.1452699
vn -0.05741075 0.9885023 0.1398832
vn 0.3190478 0.9471096 -0.03452497
vn 0.1601793 0.9601995 0.228822
vn 0.5708867 0.8089808 -0.1401375
vn 0.3190478 0.9471096 -0.03452497
vn 0.4887342 0.8483111 0.2037335
vn 0.6918811 0.7184296 0.0718298
vn 0.03408973 0.9940071 0.1038649
vn -0.0223648 0.9994258 0.02545519
vn 0.03971127 0.992755 0.1134043
vn 0.02545963 0.9855399 0.16752
vn 0.02545963 0.9855399 0.16752
vn 0.03971127 0.992755 0.1134043
vn 0 1 0
vn 0 1 0
vn -0.2970761 0.8043997 -0.5144774
vn -0.1162976 0.7029265 -0.7016904
vn -0.1162976 0.7029265 -0.7016904
vn -0.208311 0.7608863 -0.6145395
vn -0.3143987 0.9492911 0
vn -0.3143987 0.9492911 0
vn -0.3143987 0.9492911 0
vn -0.3143987 0.9492911 0
vn 0.3585032 0.8915063 -0.2769332
vn 0.1601793 0.9601995 0.228822
vn 0.3190478 0.9471096 -0.03452497
vn 0.5708867 0.8089808 -0.1401375
vn 0 0.6941655 0.7198154
vn 0.1820107 0.9387735 0.2925348
vn 0.1601793 0.9601995 0.228822
vn 0 0.6941655 0.7198154
vn 0 1 0
vn 0.237974 0.9712715 0
vn 0.1820107 0.9387735 0.2925348
vn 0 1 0
vn -0.8082311 0.5518024 0.2056127
vn -0.8082311 0.5518024 0.2056127
vn -0.8082312 0.5518024 0.2056127
vn -0.8082311 0.5518024 0.2056127
vn -0.02150728 0.9495885 -0.3127605
vn -0.02150728 0.9495885 -0.3127605
vn 0.01004957 0.9706692 -0.2402093
vn 0.04116783 0.9851086 -0.1669323
vn 0.04116783 0.9851086 -0.1669323
vn 0.01004957 0.9706692 -0.2402093
vn 0.0453568 0.9983501 -0.03521101
vn 0.02621188 0.9994493 -0.02034858
vn -0.4188738 0.8396736 -0.3456778
vn -0.2970761 0.8043997 -0.5144774
vn -0.208311 0.7608863 -0.6145395
vn -0.4188738 0.8396736 -0.3456778
vn 0.02621188 0.9994493 -0.02034858
vn 0.0453568 0.9983501 -0.03521101
vn 0.001933077 0.9813498 0.1922209
vn 0.001768937 0.9843946 0.1759669
vn 0.001768937 0.9843946 0.1759669
vn 0.02545963 0.9855399 0.16752
vn 0 1 0
vn 0.02621188 0.9994493 -0.02034858
vn 0.001768937 0.9843946 0.1759669
vn 0.001933077 0.9813498 0.1922209
vn 0.003501772 0.9374107 0.3482085
vn 0.003483271 0.9380444 0.3464978
vn 0.003483271 0.9380444 0.3464978
vn 0.03408973 0.9940071 0.1038649
vn 0.02545963 0.9855399 0.16752
vn 0.001768937 0.9843946 0.1759669
vn -0.6152708 0.6672228 -0.419828
vn -0.6152708 0.6672228 -0.419828
vn -0.6152708 0.6672228 -0.419828
vn -0.6152708 0.6672228 -0.419828
vn -0.2209745 0.8567815 -0.4659352
vn -0.2409366 0.8528927 -0.463167
vn -0.01894025 0.8756203 -0.4826286
vn -0.01894025 0.8756203 -0.4826286
vn 0.390618 0.8131655 -0.4314852
vn 0.390618 0.8131655 -0.4314852
vn 0.390618 0.8131655 -0.4314852
vn 0.390618 0.8131655 -0.4314852
vn -0.4191966 0.8003516 -0.4286158
vn -0.4191966 0.8003517 -0.4286158
vn -0.2409366 0.8528927 -0.463167
vn -0.2209745 0.8567815 -0.4659352
vn -0.5087889 0.8100711 0.2914083
vn -0.5142117 0.8495799 0.1174746
vn -0.5142117 0.8495799 0.1174746
vn -0.506491 0.8016102 0.3176288
vn -0.506491 0.8016102 0.3176288
vn -0.4871646 0.7447668 0.4560626
vn -0.4871646 0.7447668 0.4560626
vn -0.5087889 0.8100711 0.2914083
vn -0.8819091 0.4714196 0
vn -0.8819091 0.4714196 0
vn -0.8819091 0.4714196 0
vn -0.8819091 0.4714196 0
vn -0.8819091 0.4714196 0
vn -0.8819091 0.4714196 0
vn -0.8819091 0.4714196 0
vn -0.8819091 0.4714196 0
vn 0.1022225 0.8980967 -0.4277534
vn 0.06403647 0.9658026 -0.2512464
vn -0.04272345 0.9855914 -0.1636598
vn 0.2123559 0.9388102 -0.2711836
vn -0.304629 0.8386356 0.4515435
vn -0.304629 0.8386356 0.4515435
vn -0.18158 0.7768748 0.6029048
vn 0.1097809 0.7590299 0.6417335
vn 0.1097809 0.7590299 0.6417335
vn -0.18158 0.7768748 0.6029048
vn 0.02124302 0.6208411 0.7836486
vn 0.01862871 0.6209267 0.7836473
vn 0.01862871 0.6209267 0.7836473
vn 0.02124302 0.6208411 0.7836486
vn 0.02148845 0.6237057 0.7813638
vn 0.01841924 0.6226217 0.7823063
vn 0.01264266 0.9914415 0.1299383
vn -0.007141237 0.9999732 -0.001666279
vn -0.01883416 0.9997739 0.009868715
vn 0.07388359 0.9670144 0.2437711
vn -0.01897849 0.9969751 0.07536957
vn 0.0006934789 0.9998142 0.01926372
vn -0.007141237 0.9999732 -0.001666279
vn 0.01264266 0.9914415 0.1299383
vn -0.06781036 0.995728 0.06267116
vn -0.04956573 0.9984815 0.02404215
vn 0.0006934789 0.9998142 0.01926372
vn -0.01897849 0.9969751 0.07536957
vn -0.1150608 0.9932845 0.01211999
vn -0.05708091 0.9982335 0.01648532
vn -0.04956573 0.9984815 0.02404215
vn -0.06781036 0.995728 0.06267116
vn -0.1778839 0.9833018 -0.03840554
vn -0.1523674 0.9883115 0.004954182
vn -0.05708091 0.9982335 0.01648532
vn -0.1150608 0.9932845 0.01211999
vn -0.01307886 0.9810904 -0.1931078
vn -0.01307883 0.9810904 -0.1931079
vn -0.01307883 0.9810904 -0.1931079
vn -0.01307886 0.9810904 -0.1931078
vn -0.01307886 0.9810904 -0.1931078
vn -0.04799126 0.9832543 -0.175806
vn 0.03408973 0.9940071 0.1038649
vn -0.01307886 0.9810904 -0.1931078
vn -0.04799126 0.9832543 -0.175806
vn -0.04272345 0.9855914 -0.1636598
vn -0.0223648 0.9994258 0.02545519
vn 0.03408973 0.9940071 0.1038649
vn 0.06403647 0.9658026 -0.2512464
vn 0.0803922 0.9967526 0.004625591
vn -0.0223648 0.9994258 0.02545519
vn -0.04272345 0.9855914 -0.1636598
vn -0.007141237 0.9999732 -0.001666279
vn 0.001153676 0.9996393 -0.02683191
vn -0.02367817 0.9982843 -0.05355232
vn -0.01883416 0.9997739 0.009868715
vn 0.0006934789 0.9998142 0.01926372
vn -0.002866295 0.999849 -0.01714
vn 0.001153676 0.9996393 -0.02683191
vn -0.007141237 0.9999732 -0.001666279
vn -0.05708091 0.9982335 0.01648532
vn -0.1523674 0.9883115 0.004954182
vn -0.03034401 0.9993926 -0.01713814
vn -0.009257946 0.9999565 0.001088971
vn -0.009257946 0.9999565 0.001088971
vn -0.01301226 0.999892 -0.006831031
vn -0.04956573 0.9984815 0.02404215
vn -0.05708091 0.9982335 0.01648532
vn -0.04956573 0.9984815 0.02404215
vn -0.01301226 0.999892 -0.006831031
vn -0.002866295 0.999849 -0.01714
vn 0.0006934789 0.9998142 0.01926372
vn -0.1229421 0.9915019 -0.04253492
vn -0.04280274 0.9990702 -0.005178364
vn 0.06641766 0.9807172 0.1838004
vn 0.1148169 0.9742976 0.1938073
vn -0.1718502 0.9812002 -0.0878276
vn -0.09294087 0.9884708 -0.1195303
vn -0.04280274 0.9990702 -0.005178364
vn -0.1229421 0.9915019 -0.04253492
vn -0.5000587 0.7853338 0.3649552
vn -0.2660487 0.8516495 0.4515655
vn -0.1676557 0.7710297 0.6143329
vn -0.3480198 0.784437 0.5133623
vn -0.6272826 0.7540334 0.1948084
vn -0.6191399 0.7485371 0.2373988
vn -0.2660487 0.8516495 0.4515655
vn -0.5000587 0.7853338 0.3649552
vn 0.1323039 0.9562802 0.2608139
vn 0.07388359 0.9670144 0.2437711
vn -0.01883416 0.9997739 0.009868715
vn 0.07943781 0.9964698 -0.02715853
vn 0.07943781 0.9964698 -0.02715853
vn -0.01883416 0.9997739 0.009868715
vn -0.02367817 0.9982843 -0.05355232
vn 0.04693885 0.9915569 -0.1208789
vn 0.04693885 0.9915569 -0.1208789
vn -0.02367817 0.9982843 -0.05355232
vn -0.01233024 0.9998834 0.009019086
vn 0.03720846 0.9731027 0.227347
vn 0.03720846 0.9731027 0.227347
vn 0.03629239 0.8391504 0.5426873
vn 0.06189284 0.9551656 0.2895308
vn 0.1066044 0.9685825 0.2246857
vn 0.1066044 0.9685825 0.2246857
vn 0.06189284 0.9551656 0.2895308
vn 0.00469734 0.9487755 0.315916
vn 0.06978346 0.9750121 0.210907
vn 0.06978346 0.9750121 0.210907
vn 0.00469734 0.9487755 0.315916
vn -0.02557326 0.8603088 0.5091314
vn -0.04572371 0.8915881 0.4505331
vn -0.5334234 0.7750155 0.3388369
vn 0.03186244 0.9189956 0.3929785
vn -0.05741075 0.9885023 0.1398832
vn -0.2969167 0.9438615 0.1447961
vn -0.2969167 0.9438615 0.1447961
vn -0.6256927 0.7505893 0.2124254
vn -0.8255468 0.5510208 0.1218547
vn -0.5334234 0.7750155 0.3388369
vn -0.2969167 0.9438615 0.1447961
vn -0.05741075 0.9885023 0.1398832
vn -0.09512907 0.9848082 0.1452699
vn -0.2833636 0.9485533 0.141251
vn -0.2833636 0.9485533 0.141251
vn -0.1718502 0.9812002 -0.0878276
vn -0.1229421 0.9915019 -0.04253492
vn -0.2969167 0.9438615 0.1447961
vn -0.2833636 0.9485533 0.141251
vn -0.09512907 0.9848082 0.1452699
vn -0.5137563 0.8504941 0.1127579
vn -0.5189266 0.8268269 0.2169621
vn -0.5189266 0.8268269 0.2169621
vn -0.5000587 0.7853338 0.3649552
vn -0.3480198 0.784437 0.5133623
vn -0.2833636 0.9485533 0.141251
vn -0.5189266 0.8268269 0.2169621
vn -0.5137563 0.8504941 0.1127579
vn -0.646565 0.7618472 0.03927679
vn -0.6417803 0.7612956 0.09245089
vn -0.6417803 0.7612956 0.09245089
vn -0.6272826 0.7540334 0.1948084
vn -0.5000587 0.7853338 0.3649552
vn -0.5189266 0.8268269 0.2169621
vn -0.06515409 0.9968069 -0.04616284
vn 0.1323039 0.9562802 0.2608139
vn 0.07943781 0.9964698 -0.02715853
vn 0.09333494 0.9519913 -0.2915498
vn 0.09333494 0.9519913 -0.2915498
vn 0.06403647 0.9658026 -0.2512464
vn 0.1022225 0.8980967 -0.4277534
vn -0.01729923 0.8279324 -0.560561
vn 0.09333494 0.9519913 -0.2915498
vn 0.07943781 0.9964698 -0.02715853
vn 0.04693885 0.9915569 -0.1208789
vn 0.142119 0.9880047 -0.06040666
vn 0.142119 0.9880047 -0.06040666
vn 0.0803922 0.9967526 0.004625591
vn 0.06403647 0.9658026 -0.2512464
vn 0.09333494 0.9519913 -0.2915498
vn 0.142119 0.9880047 -0.06040666
vn 0.04693885 0.9915569 -0.1208789
vn 0.03720846 0.9731027 0.227347
vn 0.07663541 0.9849209 0.1551058
vn 0.07663541 0.9849209 0.1551058
vn 0.04281934 0.9946797 0.09369478
vn 0.0803922 0.9967526 0.004625591
vn 0.142119 0.9880047 -0.06040666
vn 0.07663541 0.9849209 0.1551058
vn 0.03720846 0.9731027 0.227347
vn 0.1066044 0.9685825 0.2246857
vn 0.1076659 0.9870365 0.1190257
vn 0.1076659 0.9870365 0.1190257
vn 0.1388551 0.9875301 -0.07418693
vn 0.04281934 0.9946797 0.09369478
vn 0.07663541 0.9849209 0.1551058
vn 0.1076659 0.9870365 0.1190257
vn 0.1066044 0.9685825 0.2246857
vn 0.06978346 0.9750121 0.210907
vn 0.1369091 0.9856269 0.09897277
vn 0.1369091 0.9856269 0.09897277
vn 0.2177948 0.9696559 -0.1110536
vn 0.1388551 0.9875301 -0.07418693
vn 0.1076659 0.9870365 0.1190257
vn 0.1369091 0.9856269 0.09897277
vn 0.06978346 0.9750121 0.210907
vn -0.04572371 0.8915881 0.4505331
vn 0.07744036 0.960693 0.2665933
vn 0.07744036 0.960693 0.2665933
vn 0.1729544 0.9788636 0.1091462
vn 0.2177948 0.9696559 -0.1110536
vn 0.1369091 0.9856269 0.09897277
vn -0.0352333 0.826261 -0.5621845
vn -0.01729923 0.8279324 -0.560561
vn 0.1022225 0.8980967 -0.4277534
vn 0.1395832 0.9613333 -0.2373917
vn 0.1395832 0.9613333 -0.2373917
vn 0.1022225 0.8980967 -0.4277534
vn 0.2123559 0.9388102 -0.2711836
vn 0.3271806 0.9373693 -0.1195479
vn 0.3963151 0.7896147 0.4684475
vn 0.3331797 0.8334878 0.4407827
vn 0.1097809 0.7590299 0.6417335
vn 0.1738068 0.6963789 0.6963101
vn 0.1738068 0.6963789 0.6963101
vn 0.1097809 0.7590299 0.6417335
vn 0.01862871 0.6209267 0.7836473
vn 0.01549058 0.6212958 0.7834229
vn 0.01549058 0.6212958 0.7834229
vn 0.01862871 0.6209267 0.7836473
vn 0.01841924 0.6226217 0.7823063
vn 0.01618507 0.6229116 0.7821248
vn -0.7961754 0.6050653 0.0009011076
vn -0.6746411 0.699149 -0.2367492
vn -0.6746411 0.699149 -0.2367492
vn -0.7682428 0.6366984 -0.06646986
vn 0.1259803 0.9527927 0.2762518
vn 0.07388359 0.9670144 0.2437711
vn 0.1323039 0.9562802 0.2608139
vn 0.2982576 0.9038597 0.3067246
vn 0.03752845 0.9809483 0.19061
vn 0.01264266 0.9914415 0.1299383
vn 0.07388359 0.9670144 0.2437711
vn 0.1259803 0.9527927 0.2762518
vn -0.01990905 0.9957922 0.08945163
vn -0.01897849 0.9969751 0.07536957
vn 0.01264266 0.9914415 0.1299383
vn 0.03752845 0.9809483 0.19061
vn -0.06687695 0.9964376 0.05137643
vn -0.06781036 0.995728 0.06267116
vn -0.01897849 0.9969751 0.07536957
vn -0.01990905 0.9957922 0.08945163
vn -0.05218208 0.9986283 0.00432497
vn -0.1150608 0.9932845 0.01211999
vn -0.06781036 0.995728 0.06267116
vn -0.06687695 0.9964376 0.05137643
vn -0.09099638 0.9950417 -0.04014595
vn -0.1778839 0.9833018 -0.03840554
vn -0.1150608 0.9932845 0.01211999
vn -0.05218208 0.9986283 0.00432497
vn -0.1206979 0.7877105 0.6041062
vn 0.03186244 0.9189956 0.3929785
vn -0.5334234 0.7750155 0.3388369
vn -0.1206979 0.7877105 0.6041061
vn 0.1882513 0.9787159 0.08171079
vn 0.1395832 0.9613333 -0.2373917
vn 0.3271806 0.9373693 -0.1195479
vn 0.4651879 0.8440149 0.2669064
vn 0.4651879 0.8440149 0.2669064
vn 0.4887342 0.8483111 0.2037335
vn 0.03186244 0.9189956 0.3929785
vn 0.1882513 0.9787159 0.08171079
vn 0.4651879 0.8440149 0.2669064
vn 0.3963151 0.7896147 0.4684475
vn 0.1738068 0.6963789 0.6963101
vn 0.5755381 0.7226998 0.3827024
vn 0.5755381 0.7226998 0.3827024
vn 0.6918811 0.7184296 0.0718298
vn 0.4887342 0.8483111 0.2037335
vn 0.4651879 0.8440149 0.2669064
vn 0.008841023 0.6182818 0.7859067
vn 0.1738068 0.6963789 0.6963101
vn 0.01549058 0.6212958 0.7834229
vn 0.01011498 0.619382 0.7850246
vn 0.01011498 0.619382 0.7850246
vn 0.003685471 0.6148544 0.788632
vn 0.003685471 0.6148544 0.7886321
vn 0.008841023 0.6182818 0.7859067
vn 0.01011498 0.619382 0.7850246
vn 0.01549058 0.6212958 0.7834229
vn 0.01618507 0.6229116 0.7821248
vn 0.01656438 0.6242388 0.7810579
vn -0.9697206 0.2438958 -0.01251986
vn -0.9697207 0.2438959 -0.01251986
vn -0.9697206 0.2438958 -0.01251985
vn -0.9697206 0.2438958 -0.01251986
vn -0.8734492 0.4768981 0.0982583
vn -0.5334234 0.7750155 0.3388369
vn -0.8255468 0.5510208 0.1218547
vn -0.8638815 0.4921179 0.1073719
vn -0.8638815 0.4921179 0.1073719
vn -0.7961754 0.6050653 0.0009011076
vn -0.7682428 0.6366984 -0.06646986
vn -0.8734492 0.4768981 0.0982583
vn 0.2522903 0.9194512 0.3015942
vn 0.1148169 0.9742976 0.1938073
vn 0.06641766 0.9807172 0.1838004
vn 0.1585003 0.9460404 0.28264
vn 0.1585003 0.9460404 0.28264
vn 0.1259803 0.9527927 0.2762518
vn 0.2982576 0.9038597 0.3067246
vn 0.2522903 0.9194512 0.3015942
vn 0.1585003 0.9460404 0.28264
vn 0.06641766 0.9807172 0.1838004
vn 0.0831292 0.9875181 0.1337818
vn 0.05832711 0.9797583 0.1914982
vn 0.05832711 0.9797583 0.1914982
vn 0.03752845 0.9809483 0.19061
vn 0.1259803 0.9527927 0.2762518
vn 0.1585003 0.9460404 0.28264
vn 0.05832711 0.9797583 0.1914982
vn 0.0831292 0.9875181 0.1337818
vn 0.008345579 0.9989769 0.04444527
vn -0.01558273 0.9958023 0.09019386
vn -0.01558273 0.9958023 0.09019386
vn -0.01990905 0.9957922 0.08945163
vn 0.03752845 0.9809483 0.19061
vn 0.05832711 0.9797583 0.1914982
vn -0.01558273 0.9958023 0.09019386
vn 0.008345579 0.9989769 0.04444527
vn -0.04378944 0.9990321 -0.004183955
vn -0.0624064 0.9969805 0.04620953
vn -0.0624064 0.9969805 0.04620953
vn -0.06687695 0.9964376 0.05137643
vn -0.01990905 0.9957922 0.08945163
vn -0.01558273 0.9958023 0.09019386
vn -0.0624064 0.9969805 0.04620953
vn -0.04378944 0.9990321 -0.004183955
vn -0.04329623 0.9978375 -0.04945602
vn -0.01127077 0.9994779 0.03027902
vn -0.01127077 0.9994779 0.03027902
vn -0.05218208 0.9986283 0.00432497
vn -0.06687695 0.9964376 0.05137643
vn -0.0624064 0.9969805 0.04620953
vn -0.01127077 0.9994779 0.03027902
vn -0.04329623 0.9978375 -0.04945602
vn -0.07478383 0.9959991 -0.04891951
vn -0.02428834 0.9996943 0.004614125
vn -0.02428834 0.9996943 0.004614125
vn -0.09099638 0.9950417 -0.04014595
vn -0.05218208 0.9986283 0.00432497
vn -0.01127077 0.9994779 0.03027902
vn -0.09920821 0.9927644 -0.0676505
vn -0.02664418 0.9991693 -0.03083326
vn -0.03107473 0.9991031 -0.02876461
vn -0.08057701 0.9952684 -0.05429631
vn -0.02664418 0.9991693 -0.03083326
vn 0.1395832 0.9613333 -0.2373917
vn -0.07101313 0.9950577 -0.06940787
vn -0.03107473 0.9991031 -0.02876461
vn 0.1395832 0.9613333 -0.2373917
vn 0.1882513 0.9787159 0.08171079
vn -0.1203597 0.9882014 -0.09471912
vn -0.07101313 0.9950577 -0.06940787
vn 0.1882513 0.9787159 0.08171079
vn -0.09920821 0.9927644 -0.0676505
vn -0.08057701 0.9952684 -0.05429631
vn -0.1203597 0.9882014 -0.09471912
vn 0.9904943 0.08219053 0.1102986
vn 0.9904943 0.08219053 0.1102986
vn 0.9904943 0.08219053 0.1102986
vn 0.9904943 0.08219053 0.1102986
vn -0.0101491 0.06123853 0.9980716
vn -0.0101491 0.06123853 0.9980716
vn -0.0101491 0.06123853 0.9980716
vn -0.0101491 0.06123853 0.9980716
vn -0.9911678 -0.0818706 -0.1043246
vn -0.9911678 -0.0818706 -0.1043246
vn -0.9911678 -0.0818706 -0.1043246
vn -0.9911678 -0.0818706 -0.1043246
vn 0.03303902 -0.05947336 -0.997683
vn 0.03303902 -0.05947337 -0.997683
vn 0.03303902 -0.05947336 -0.997683
vn 0.03303902 -0.05947337 -0.997683
vn -0.07569636 0.995212 -0.06183259
vn -0.07569636 0.995212 -0.0618326
vn -0.07569636 0.995212 -0.0618326
vn -0.07569636 0.995212 -0.0618326
vt 0.1428571 0.2857143
vt 0.1428571 0.4285715
vt 0.2857143 0.4285715
vt 0.2857143 0.2857143
vt 0.2857143 0.2857143
vt 0.2857143 0.4285715
vt 0.4285715 0.4285715
vt 0.4285715 0.2857143
vt 0.4285715 0.2857143
vt 0.4285715 0.4285715
vt 0.5714286 0.4285715
vt 0.5714286 0.2857143
vt 0.1428571 0.8254042
vt 0.1428571 0.8571429
vt 0.2857143 0.8571429
vt 0.2857143 0.8254042
vt 0.2857143 0.8254042
vt 0.2857143 0.7142857
vt 0.1428571 0.7142857
vt 0.1428571 0.8254042
vt 0.2857143 0.8254042
vt 0.2857143 0.8571429
vt 0.4285715 0.8571429
vt 0.4285715 0.8254042
vt 0.4285715 0.8254042
vt 0.4285715 0.7142857
vt 0.2857143 0.7142857
vt 0.2857143 0.8254042
vt 0.4285715 0.8254042
vt 0.4285715 0.8571429
vt 0.5714286 0.8571429
vt 0.5714286 0.8254042
vt 0.5714286 0.8254042
vt 0.5714286 0.7142857
vt 0.4285715 0.7142857
vt 0.4285715 0.8254042
vt 0.0346527 0.7142857
vt 0 0.7142857
vt 0 0.8254042
vt 0.0346527 0.8254042
vt 0.0346527 0.8254042
vt 0.1428571 0.8254042
vt 0.1428571 0.7142857
vt 0.0346527 0.7142857
vt 0.0346527 0.8254042
vt 0 0.8254042
vt 0 0.8571429
vt 0.0346527 0.8571429
vt 0.0346527 0.8571429
vt 0.1428571 0.8571429
vt 0.1428571 0.8254042
vt 0.0346527 0.8254042
vt 0.0346527 0.4285715
vt 0.1428571 0.4285715
vt 0.1428571 0.2857143
vt 0.0346527 0.2857143
vt 0.0346527 0.2857143
vt 0 0.2857143
vt 0 0.4285715
vt 0.0346527 0.4285715
vt 0.5714286 0.9626552
vt 0.5714286 0.8571429
vt 0.4285715 0.8571429
vt 0.4285715 0.9626552
vt 0.4285715 0.9626552
vt 0.4285715 1
vt 0.5714286 1
vt 0.5714286 0.9626552
vt 0.4285715 0.9626552
vt 0.4285715 0.8571429
vt 0.2857143 0.8571429
vt 0.2857143 0.9626552
vt 0.2857143 0.9626552
vt 0.2857143 1
vt 0.4285715 1
vt 0.4285715 0.9626552
vt 0.2857143 0.9626552
vt 0.2857143 0.8571429
vt 0.1428571 0.8571429
vt 0.1428571 0.9626552
vt 0.1428571 0.9626552
vt 0.1428571 1
vt 0.2857143 1
vt 0.2857143 0.9626552
vt 0.1428571 0.9626552
vt 0.1428571 0.8571429
vt 0.0346527 0.8571429
vt 0.0346527 0.9626552
vt 0.0346527 0.9626552
vt 0.0346527 1
vt 0.1428571 1
vt 0.1428571 0.9626552
vt 0.0346527 0.9626552
vt 0.0346527 0.8571429
vt 0 0.8571429
vt 0 0.9626552
vt 0 0.9626552
vt 0 1
vt 0.0346527 1
vt 0.0346527 0.9626552
vt 0.7142857 0.2857143
vt 0.7142857 0.4285715
vt 0.8571429 0.4285715
vt 0.8571429 0.2857143
vt 0.7142857 0.9626552
vt 0.7142857 1
vt 0.8571429 1
vt 0.8571429 0.9626552
vt 0.8571429 0.9626552
vt 0.8571429 0.8571429
vt 0.7142857 0.8571429
vt 0.7142857 0.9626552
vt 0.7142857 0.8254042
vt 0.7142857 0.8571429
vt 0.8571429 0.8571429
vt 0.8571429 0.8254042
vt 0.8571429 0.8254042
vt 0.8571429 0.7142857
vt 0.7142857 0.7142857
vt 0.7142857 0.8254042
vt 0.8571429 0.07103647
vt 0.8571429 0
vt 0.7142857 0
vt 0.7142857 0.07103647
vt 0.7142857 0.07103647
vt 0.7142857 0.1428571
vt 0.8571429 0.1428571
vt 0.8571429 0.07103647
vt 0.5714286 0.07103647
vt 0.5714286 0
vt 0.4285715 0
vt 0.4285715 0.07103647
vt 0.4285715 0.07103647
vt 0.4285715 0.1428571
vt 0.5714286 0.1428571
vt 0.5714286 0.07103647
vt 0.4285715 0.07103647
vt 0.4285715 0
vt 0.2857143 0
vt 0.2857143 0.07103647
vt 0.2857143 0.07103647
vt 0.2857143 0.1428571
vt 0.4285715 0.1428571
vt 0.4285715 0.07103647
vt 0.2857143 0.07103647
vt 0.2857143 0
vt 0.1428571 0
vt 0.1428571 0.07103647
vt 0.1428571 0.07103647
vt 0.1428571 0.1428571
vt 0.2857143 0.1428571
vt 0.2857143 0.07103647
vt 0.1428571 0.07103647
vt 0.1428571 0
vt 0.0346527 0
vt 0.0346527 0.07103647
vt 0.0346527 0.07103647
vt 0.0346527 0.1428571
vt 0.1428571 0.1428571
vt 0.1428571 0.07103647
vt 0.0346527 0.07103647
vt 0.0346527 0
vt 0 0
vt 0 0.07103647
vt 0 0.07103647
vt 0 0.1428571
vt 0.0346527 0.1428571
vt 0.0346527 0.07103647
vt 0.0346527 0.1428571
vt 0 0.1428571
vt 0 0.2857143
vt 0.0346527 0.2857143
vt 0.0346527 0.2857143
vt 0.1428571 0.2857143
vt 0.1428571 0.1428571
vt 0.0346527 0.1428571
vt 0.1428571 0.1428571
vt 0.1428571 0.2857143
vt 0.2857143 0.2857143
vt 0.2857143 0.1428571
vt 0.2857143 0.1428571
vt 0.2857143 0.2857143
vt 0.4285715 0.2857143
vt 0.4285715 0.1428571
vt 0.4285715 0.1428571
vt 0.4285715 0.2857143
vt 0.5714286 0.2857143
vt 0.5714286 0.1428571
vt 0.7142857 0.1428571
vt 0.7142857 0.2857143
vt 0.8571429 0.2857143
vt 0.8571429 0.1428571
vt 0.9601901 0.2857143
vt 0.8571429 0.2857143
vt 0.8571429 0.4285715
vt 0.9601901 0.4285715
vt 0.9601901 0.7142857
vt 0.8571429 0.7142857
vt 0.8571429 0.8254042
vt 0.9601901 0.8254042
vt 0.9601901 0.8254042
vt 0.8571429 0.8254042
vt 0.8571429 0.8571429
vt 0.9601901 0.8571429
vt 0.9601901 0.8571429
vt 0.8571429 0.8571429
vt 0.8571429 0.9626552
vt 0.9601901 0.9626552
vt 0.9601901 0.9626552
vt 0.8571429 0.9626552
vt 0.8571429 1
vt 0.9601901 1
vt 0.9601901 0.1428571
vt 0.8571429 0.1428571
vt 0.8571429 0.2857143
vt 0.9601901 0.2857143
vt 0.9601901 0.07103647
vt 0.8571429 0.07103647
vt 0.8571429 0.1428571
vt 0.9601901 0.1428571
vt 0.9601901 0
vt 0.8571429 0
vt 0.8571429 0.07103647
vt 0.9601901 0.07103647
vt 0.9892299 0.9626552
vt 0.9601901 0.9626552
vt 0.9601901 1
vt 0.9892299 1
vt 0.9892299 1
vt 1 1
vt 1 0.9626552
vt 0.9892299 0.9626552
vt 0.9892299 0.9626552
vt 1 0.9626552
vt 1 0.8571429
vt 0.9892299 0.8571429
vt 0.9892299 0.8571429
vt 0.9601901 0.8571429
vt 0.9601901 0.9626552
vt 0.9892299 0.9626552
vt 0.9892299 0.8571429
vt 1 0.8571429
vt 1 0.8254042
vt 0.9892299 0.8254042
vt 0.9892299 0.8254042
vt 0.9601901 0.8254042
vt 0.9601901 0.8571429
vt 0.9892299 0.8571429
vt 0.9892299 0.8254042
vt 1 0.8254042
vt 1 0.7142857
vt 0.9892299 0.7142857
vt 0.9892299 0.7142857
vt 0.9601901 0.7142857
vt 0.9601901 0.8254042
vt 0.9892299 0.8254042
vt 0.9892299 0.4285715
vt 1 0.4285715
vt 1 0.2857143
vt 0.9892299 0.2857143
vt 0.9892299 0.2857143
vt 0.9601901 0.2857143
vt 0.9601901 0.4285715
vt 0.9892299 0.4285715
vt 0.9892299 0.2857143
vt 1 0.2857143
vt 1 0.1428571
vt 0.9892299 0.1428571
vt 0.9892299 0.1428571
vt 0.9601901 0.1428571
vt 0.9601901 0.2857143
vt 0.9892299 0.2857143
vt 0.9892299 0.1428571
vt 1 0.1428571
vt 1 0.07103647
vt 0.9892299 0.07103647
vt 0.9892299 0.07103647
vt 0.9601901 0.07103647
vt 0.9601901 0.1428571
vt 0.9892299 0.1428571
vt 0.9892299 0.07103647
vt 1 0.07103647
vt 1 0
vt 0.9892299 0
vt 0.9892299 0
vt 0.9601901 0
vt 0.9601901 0.07103647
vt 0.9892299 0.07103647
vt 0.7142857 0.5015186
vt 0.7142857 0.5714286
vt 0.8571429 0.5714286
vt 0.8571429 0.5015186
vt 0.8571429 0.5015186
vt 0.8571429 0.5714286
vt 0.9601901 0.5714286
vt 0.9601901 0.5015186
vt 0.9601901 0.5015186
vt 0.9601901 0.5714286
vt 0.9892299 0.5714286
vt 0.9892299 0.5015186
vt 0.9892299 0.5015186
vt 0.9892299 0.5714286
vt 1 0.5714286
vt 1 0.5015186
vt 0.4285715 0.5015186
vt 0.4285715 0.5714286
vt 0.5714286 0.5714286
vt 0.5714286 0.5015186
vt 0.2857143 0.5015186
vt 0.2857143 0.5714286
vt 0.4285715 0.5714286
vt 0.4285715 0.5015186
vt 0.1428571 0.5015186
vt 0.1428571 0.5714286
vt 0.2857143 0.5714286
vt 0.2857143 0.5015186
vt 0.0346527 0.5015186
vt 0.0346527 0.5714286
vt 0.1428571 0.5714286
vt 0.1428571 0.5015186
vt 0 0.5015186
vt 0 0.5714286
vt 0.0346527 0.5714286
vt 0.0346527 0.5015186
vt 0.9892299 0.7142857
vt 1 0.7142857
vt 1 0.5714286
vt 0.9892299 0.5714286
vt 0.9892299 0.5714286
vt 0.9601901 0.5714286
vt 0.9601901 0.7142857
vt 0.9892299 0.7142857
vt 0.9601901 0.5714286
vt 0.8571429 0.5714286
vt 0.8571429 0.7142857
vt 0.9601901 0.7142857
vt 0.7142857 0.5714286
vt 0.7142857 0.7142857
vt 0.8571429 0.7142857
vt 0.8571429 0.5714286
vt 0.4285715 0.5714286
vt 0.4285715 0.7142857
vt 0.5714286 0.7142857
vt 0.5714286 0.5714286
vt 0.2857143 0.5714286
vt 0.2857143 0.7142857
vt 0.4285715 0.7142857
vt 0.4285715 0.5714286
vt 0.0346527 0.5714286
vt 0 0.5714286
vt 0 0.7142857
vt 0.0346527 0.7142857
vt 0.0346527 0.7142857
vt 0.1428571 0.7142857
vt 0.1428571 0.5714286
vt 0.0346527 0.5714286
vt 0.1428571 0.5714286
vt 0.1428571 0.7142857
vt 0.2857143 0.7142857
vt 0.2857143 0.5714286
vt 0.5998761 0.2857143
vt 0.5714286 0.2857143
vt 0.5714286 0.4285715
vt 0.5998761 0.4285715
vt 0.5998761 0.1428571
vt 0.5714286 0.1428571
vt 0.5714286 0.2857143
vt 0.5998761 0.2857143
vt 0.5998761 0.07103647
vt 0.5714286 0.07103647
vt 0.5714286 0.1428571
vt 0.5998761 0.1428571
vt 0.5998761 0
vt 0.5714286 0
vt 0.5714286 0.07103647
vt 0.5998761 0.07103647
vt 0.5998761 0.5015186
vt 0.5714286 0.5015186
vt 0.5714286 0.5714286
vt 0.5998761 0.5714286
vt 0.5998761 0.5714286
vt 0.5714286 0.5714286
vt 0.5714286 0.7142857
vt 0.5998761 0.7142857
vt 0.5998761 0.7142857
vt 0.5714286 0.7142857
vt 0.5714286 0.8254042
vt 0.5998761 0.8254042
vt 0.5998761 0.8254042
vt 0.5714286 0.8254042
vt 0.5714286 0.8571429
vt 0.5998761 0.8571429
vt 0.5998761 0.8571429
vt 0.5714286 0.8571429
vt 0.5714286 0.9626552
vt 0.5998761 0.9626552
vt 0.5998761 0.9626552
vt 0.5714286 0.9626552
vt 0.5714286 1
vt 0.5998761 1
vt 0.6626652 0.4285715
vt 0.7142857 0.4285715
vt 0.7142857 0.2857143
vt 0.6626652 0.2857143
vt 0.6626652 0.2857143
vt 0.5998761 0.2857143
vt 0.5998761 0.4285715
vt 0.6626652 0.4285715
vt 0.6626652 0.2857143
vt 0.7142857 0.2857143
vt 0.7142857 0.1428571
vt 0.6626652 0.1428571
vt 0.6626652 0.1428571
vt 0.5998761 0.1428571
vt 0.5998761 0.2857143
vt 0.6626652 0.2857143
vt 0.6626652 0.1428571
vt 0.7142857 0.1428571
vt 0.7142857 0.07103647
vt 0.6626652 0.07103647
vt 0.6626652 0.07103647
vt 0.5998761 0.07103647
vt 0.5998761 0.1428571
vt 0.6626652 0.1428571
vt 0.6626652 0.07103647
vt 0.7142857 0.07103647
vt 0.7142857 0
vt 0.6626652 0
vt 0.6626652 0
vt 0.5998761 0
vt 0.5998761 0.07103647
vt 0.6626652 0.07103647
vt 0.6626652 0.5015186
vt 0.5998761 0.5015186
vt 0.5998761 0.5714286
vt 0.6626652 0.5714286
vt 0.6626652 0.5714286
vt 0.7142857 0.5714286
vt 0.7142857 0.5015186
vt 0.6626652 0.5015186
vt 0.6626652 0.5714286
vt 0.5998761 0.5714286
vt 0.5998761 0.7142857
vt 0.6626652 0.7142857
vt 0.6626652 0.7142857
vt 0.7142857 0.7142857
vt 0.7142857 0.5714286
vt 0.6626652 0.5714286
vt 0.6626652 0.7142857
vt 0.5998761 0.7142857
vt 0.5998761 0.8254042
vt 0.6626652 0.8254042
vt 0.6626652 0.8254042
vt 0.7142857 0.8254042
vt 0.7142857 0.7142857
vt 0.6626652 0.7142857
vt 0.6626652 0.8254042
vt 0.5998761 0.8254042
vt 0.5998761 0.8571429
vt 0.6626652 0.8571429
vt 0.6626652 0.8571429
vt 0.7142857 0.8571429
vt 0.7142857 0.8254042
vt 0.6626652 0.8254042
vt 0.6626652 0.8571429
vt 0.5998761 0.8571429
vt 0.5998761 0.9626552
vt 0.6626652 0.9626552
vt 0.6626652 0.9626552
vt 0.7142857 0.9626552
vt 0.7142857 0.8571429
vt 0.6626652 0.8571429
vt 0.6626652 0.9626552
vt 0.5998761 0.9626552
vt 0.5998761 1
vt 0.6626652 1
vt 0.6626652 1
vt 0.7142857 1
vt 0.7142857 0.9626552
vt 0.6626652 0.9626552
vt 0.6626652 0.472858
vt 0.6626652 0.5015186
vt 0.7142857 0.5015186
vt 0.7142857 0.472858
vt 0.7142857 0.472858
vt 0.7142857 0.5015186
vt 0.8571429 0.5015186
vt 0.8571429 0.472858
vt 0.8571429 0.472858
vt 0.8571429 0.5015186
vt 0.9601901 0.5015186
vt 0.9601901 0.472858
vt 0.9601901 0.472858
vt 0.9601901 0.5015186
vt 0.9892299 0.5015186
vt 0.9892299 0.472858
vt 0.9892299 0.472858
vt 0.9892299 0.5015186
vt 1 0.5015186
vt 1 0.472858
vt 0.5998761 0.472858
vt 0.5998761 0.5015186
vt 0.6626652 0.5015186
vt 0.6626652 0.472858
vt 0.5714286 0.472858
vt 0.5714286 0.5015186
vt 0.5998761 0.5015186
vt 0.5998761 0.472858
vt 0.4285715 0.472858
vt 0.4285715 0.5015186
vt 0.5714286 0.5015186
vt 0.5714286 0.472858
vt 0.2857143 0.472858
vt 0.2857143 0.5015186
vt 0.4285715 0.5015186
vt 0.4285715 0.472858
vt 0.1428571 0.472858
vt 0.1428571 0.5015186
vt 0.2857143 0.5015186
vt 0.2857143 0.472858
vt 0.0346527 0.472858
vt 0.0346527 0.5015186
vt 0.1428571 0.5015186
vt 0.1428571 0.472858
vt 0 0.472858
vt 0 0.5015186
vt 0.0346527 0.5015186
vt 0.0346527 0.472858
vt 0.7142857 0.4564822
vt 0.7142857 0.4285715
vt 0.6626652 0.4285715
vt 0.6626652 0.4564822
vt 0.7142857 0.4564822
vt 0.7142857 0.472858
vt 0.8571429 0.472858
vt 0.8571429 0.4564822
vt 0.8571429 0.4564822
vt 0.8571429 0.4285715
vt 0.7142857 0.4285715
vt 0.7142857 0.4564822
vt 0.8571429 0.4564822
vt 0.8571429 0.472858
vt 0.9601901 0.472858
vt 0.9601901 0.4564822
vt 0.9601901 0.4564822
vt 0.9601901 0.4285715
vt 0.8571429 0.4285715
vt 0.8571429 0.4564822
vt 0.9601901 0.4564822
vt 0.9601901 0.472858
vt 0.9892299 0.472858
vt 0.9892299 0.4564822
vt 0.9892299 0.4564822
vt 0.9892299 0.4285715
vt 0.9601901 0.4285715
vt 0.9601901 0.4564822
vt 0.9892299 0.4564822
vt 0.9892299 0.472858
vt 1 0.472858
vt 1 0.4564822
vt 1 0.4564822
vt 1 0.4285715
vt 0.9892299 0.4285715
vt 0.9892299 0.4564822
vt 0.6626652 0.4564822
vt 0.6626652 0.4285715
vt 0.5998761 0.4285715
vt 0.5998761 0.4564822
vt 0.5998761 0.4564822
vt 0.5998761 0.472858
vt 0.6626652 0.472858
vt 0.6626652 0.4564822
vt 0.5998761 0.4564822
vt 0.5998761 0.4285715
vt 0.5714286 0.4285715
vt 0.5714286 0.4564822
vt 0.5714286 0.4564822
vt 0.5714286 0.472858
vt 0.5998761 0.472858
vt 0.5998761 0.4564822
vt 0.5714286 0.4564822
vt 0.5714286 0.4285715
vt 0.4285715 0.4285715
vt 0.4285715 0.4564822
vt 0.4285715 0.4564822
vt 0.4285715 0.472858
vt 0.5714286 0.472858
vt 0.5714286 0.4564822
vt 0.4285715 0.4564822
vt 0.4285715 0.4285715
vt 0.2857143 0.4285715
vt 0.2857143 0.4564822
vt 0.2857143 0.4564822
vt 0.2857143 0.472858
vt 0.4285715 0.472858
vt 0.4285715 0.4564822
vt 0.2857143 0.4564822
vt 0.2857143 0.4285715
vt 0.1428571 0.4285715
vt 0.1428571 0.4564822
vt 0.1428571 0.4564822
vt 0.1428571 0.472858
vt 0.2857143 0.472858
vt 0.2857143 0.4564822
vt 0.1428571 0.4564822
vt 0.1428571 0.4285715
vt 0.0346527 0.4285715
vt 0.0346527 0.4564822
vt 0.0346527 0.4564822
vt 0.0346527 0.472858
vt 0.1428571 0.472858
vt 0.1428571 0.4564822
vt 0.0346527 0.4564822
vt 0.0346527 0.4285715
vt 0 0.4285715
vt 0 0.4564822
vt 0 0.4564822
vt 0 0.472858
vt 0.0346527 0.472858
vt 0.0346527 0.4564822
vt 0.6626652 0.4564822
vt 0.6626652 0.472858
vt 0.6626652 0.472858
vt 0.6626652 0.4564822
vt 0.6626652 0.472858
vt 0.7142857 0.472858
vt 0.7142857 0.472858
vt 0.6626652 0.472858
vt 0.7142857 0.472858
vt 0.7142857 0.4564822
vt 0.7142857 0.4564822
vt 0.7142857 0.472858
vt 0.7142857 0.4564822
vt 0.6626652 0.4564822
vt 0.6626652 0.4564822
vt 0.7142857 0.4564822
vt 0.6626652 0.4564822
vt 0.6626652 0.472858
vt 0.6626652 0.472858
vt 0.6626652 0.4564822
vt 0.6626652 0.472858
vt 0.7142857 0.472858
vt 0.7142857 0.472858
vt 0.6626652 0.472858
vt 0.7142857 0.472858
vt 0.7142857 0.4564822
vt 0.7142857 0.4564822
vt 0.7142857 0.472858
vt 0.7142857 0.4564822
vt 0.6626652 0.4564822
vt 0.6626652 0.4564822
vt 0.7142857 0.4564822
vt 0.6626652 0.4564822
vt 0.6626652 0.472858
vt 0.7142857 0.472858
vt 0.7142857 0.4564822
usemtl Default
f 3/3/3 2/2/2 1/1/1
f 3/3/3 1/1/1 4/4/4
f 7/7/7 6/6/6 5/5/5
f 7/7/7 5/5/5 8/8/8
f 11/11/11 10/10/10 9/9/9
f 11/11/11 9/9/9 12/12/12
f 15/15/15 14/14/14 13/13/13
f 15/15/15 13/13/13 16/16/16
f 19/19/19 18/18/18 17/17/17
f 19/19/19 17/17/17 20/20/20
f 23/23/23 22/22/22 21/21/21
f 23/23/23 21/21/21 24/24/24
f 27/27/27 26/26/26 25/25/25
f 27/27/27 25/25/25 28/28/28
f 31/31/31 30/30/30 29/29/29
f 31/31/31 29/29/29 32/32/32
f 35/35/35 34/34/34 33/33/33
f 35/35/35 33/33/33 36/36/36
f 39/39/39 38/38/38 37/37/37
f 39/39/39 37/37/37 40/40/40
f 43/43/43 42/42/42 41/41/41
f 43/43/43 41/41/41 44/44/44
f 47/47/47 46/46/46 45/45/45
f 47/47/47 45/45/45 48/48/48
f 51/51/51 50/50/50 49/49/49
f 51/51/51 49/49/49 52/52/52
f 55/55/55 54/54/54 53/53/53
f 55/55/55 53/53/53 56/56/56
f 59/59/59 58/58/58 57/57/57
f 59/59/59 57/57/57 60/60/60
f 63/63/63 62/62/62 61/61/61
f 63/63/63 61/61/61 64/64/64
f 67/67/67 66/66/66 65/65/65
f 67/67/67 65/65/65 68/68/68
f 71/71/71 70/70/70 69/69/69
f 71/71/71 69/69/69 72/72/72
f 75/75/75 74/74/74 73/73/73
f 75/75/75 73/73/73 76/76/76
f 79/79/79 78/78/78 77/77/77
f 79/79/79 77/77/77 80/80/80
f 83/83/83 82/82/82 81/81/81
f 83/83/83 81/81/81 84/84/84
f 87/87/87 86/86/86 85/85/85
f 87/87/87 85/85/85 88/88/88
f 91/91/91 90/90/90 89/89/89
f 91/91/91 89/89/89 92/92/92
f 95/95/95 94/94/94 93/93/93
f 95/95/95 93/93/93 96/96/96
f 99/99/99 98/98/98 97/97/97
f 99/99/99 97/97/97 100/100/100
f 103/103/103 102/102/102 101/101/101
f 103/103/103 101/101/101 104/104/104
f 107/107/107 106/106/106 105/105/105
f 107/107/107 105/105/105 108/108/108
f 111/111/111 110/110/110 109/109/109
f 111/111/111 109/109/109 112/112/112
f 115/115/115 114/114/114 113/113/113
f 115/115/115 113/113/113 116/116/116
f 119/119/119 118/118/118 117/117/117
f 119/119/119 117/117/117 120/120/120
f 123/123/123 122/122/122 121/121/121
f 123/123/123 121/121/121 124/124/124
f 127/127/127 126/126/126 125/125/125
f 127/127/127 125/125/125 128/128/128
f 131/131/131 130/130/130 129/129/129
f 131/131/131 129/129/129 132/132/132
f 135/135/135 134/134/134 133/133/133
f 135/135/135 133/133/133 136/136/136
f 139/139/139 138/138/138 137/137/137
f 139/139/139 137/137/137 140/140/140
f 143/143/143 142/142/142 141/141/141
f 143/143/143 141/141/141 144/144/144
f 147/147/147 146/146/146 145/145/145
f 147/147/147 145/145/145 148/148/148
f 151/151/151 150/150/150 149/149/149
f 151/151/151 149/149/149 152/152/152
f 155/155/155 154/154/154 153/153/153
f 155/155/155 153/153/153 156/156/156
f 159/159/159 158/158/158 157/157/157
f 159/159/159 157/157/157 160/160/160
f 163/163/163 162/162/162 161/161/161
f 163/163/163 161/161/161 164/164/164
f 167/167/167 166/166/166 165/165/165
f 167/167/167 165/165/165 168/168/168
f 171/171/171 170/170/170 169/169/169
f 171/171/171 169/169/169 172/172/172
f 175/175/175 174/174/174 173/173/173
f 175/175/175 173/173/173 176/176/176
f 179/179/179 178/178/178 177/177/177
f 179/179/179 177/177/177 180/180/180
f 183/183/183 182/182/182 181/181/181
f 183/183/183 181/181/181 184/184/184
f 187/187/187 186/186/186 185/185/185
f 187/187/187 185/185/185 188/188/188
f 191/191/191 190/190/190 189/189/189
f 191/191/191 189/189/189 192/192/192
f 195/195/195 194/194/194 193/193/193
f 195/195/195 193/193/193 196/196/196
f 199/199/199 198/198/198 197/197/197
f 199/199/199 197/197/197 200/200/200
f 203/203/203 202/202/202 201/201/201
f 203/203/203 201/201/201 204/204/204
f 207/207/207 206/206/206 205/205/205
f 207/207/207 205/205/205 208/208/208
f 211/211/211 210/210/210 209/209/209
f 211/211/211 209/209/209 212/212/212
f 215/215/215 214/214/214 213/213/213
f 215/215/215 213/213/213 216/216/216
f 219/219/219 218/218/218 217/217/217
f 219/219/219 217/217/217 220/220/220
f 223/223/223 222/222/222 221/221/221
f 223/223/223 221/221/221 224/224/224
f 227/227/227 226/226/226 225/225/225
f 227/227/227 225/225/225 228/228/228
f 231/231/231 230/230/230 229/229/229
f 231/231/231 229/229/229 232/232/232
f 235/235/235 234/234/234 233/233/233
f 235/235/235 233/233/233 236/236/236
f 239/239/239 238/238/238 237/237/237
f 239/239/239 237/237/237 240/240/240
f 243/243/243 242/242/242 241/241/241
f 243/243/243 241/241/241 244/244/244
f 247/247/247 246/246/246 245/245/245
f 247/247/247 245/245/245 248/248/248
f 251/251/251 250/250/250 249/249/249
f 251/251/251 249/249/249 252/252/252
f 255/255/255 254/254/254 253/253/253
f 255/255/255 253/253/253 256/256/256
f 259/259/259 258/258/258 257/257/257
f 259/259/259 257/257/257 260/260/260
f 263/263/263 262/262/262 261/261/261
f 263/263/263 261/261/261 264/264/264
f 267/267/267 266/266/266 265/265/265
f 267/267/267 265/265/265 268/268/268
f 271/271/271 270/270/270 269/269/269
f 271/271/271 269/269/269 272/272/272
f 275/275/275 274/274/274 273/273/273
f 275/275/275 273/273/273 276/276/276
f 279/279/279 278/278/278 277/277/277
f 279/279/279 277/277/277 280/280/280
f 283/283/283 282/282/282 281/281/281
f 283/283/283 281/281/281 284/284/284
f 287/287/287 286/286/286 285/285/285
f 287/287/287 285/285/285 288/288/288
f 291/291/291 290/290/290 289/289/289
f 291/291/291 289/289/289 292/292/292
f 295/295/295 294/294/294 293/293/293
f 295/295/295 293/293/293 296/296/296
f 299/299/299 298/298/298 297/297/297
f 299/299/299 297/297/297 300/300/300
f 303/303/303 302/302/302 301/301/301
f 303/303/303 301/301/301 304/304/304
f 307/307/307 306/306/306 305/305/305
f 307/307/307 305/305/305 308/308/308
f 311/311/311 310/310/310 309/309/309
f 311/311/311 309/309/309 312/312/312
f 315/315/315 314/314/314 313/313/313
f 315/315/315 313/313/313 316/316/316
f 319/319/319 318/318/318 317/317/317
f 319/319/319 317/317/317 320/320/320
f 323/323/323 322/322/322 321/321/321
f 323/323/323 321/321/321 324/324/324
f 327/327/327 326/326/326 325/325/325
f 327/327/327 325/325/325 328/328/328
f 331/331/331 330/330/330 329/329/329
f 331/331/331 329/329/329 332/332/332
f 335/335/335 334/334/334 333/333/333
f 335/335/335 333/333/333 336/336/336
f 339/339/339 338/338/338 337/337/337
f 339/339/339 337/337/337 340/340/340
f 343/343/343 342/342/342 341/341/341
f 343/343/343 341/341/341 344/344/344
f 347/347/347 346/346/346 345/345/345
f 347/347/347 345/345/345 348/348/348
f 351/351/351 350/350/350 349/349/349
f 351/351/351 349/349/349 352/352/352
f 355/355/355 354/354/354 353/353/353
f 355/355/355 353/353/353 356/356/356
f 359/359/359 358/358/358 357/357/357
f 359/359/359 357/357/357 360/360/360
f 363/363/363 362/362/362 361/361/361
f 363/363/363 361/361/361 364/364/364
f 367/367/367 366/366/366 365/365/365
f 367/367/367 365/365/365 368/368/368
f 371/371/371 370/370/370 369/369/369
f 371/371/371 369/369/369 372/372/372
f 375/375/375 374/374/374 373/373/373
f 375/375/375 373/373/373 376/376/376
f 379/379/379 378/378/378 377/377/377
f 379/379/379 377/377/377 380/380/380
f 383/383/383 382/382/382 381/381/381
f 383/383/383 381/381/381 384/384/384
f 387/387/387 386/386/386 385/385/385
f 387/387/387 385/385/385 388/388/388
f 391/391/391 390/390/390 389/389/389
f 391/391/391 389/389/389 392/392/392
f 395/395/395 394/394/394 393/393/393
f 395/395/395 393/393/393 396/396/396
f 399/399/399 398/398/398 397/397/397
f 399/399/399 397/397/397 400/400/400
f 403/403/403 402/402/402 401/401/401
f 403/403/403 401/401/401 404/404/404
f 407/407/407 406/406/406 405/405/405
f 407/407/407 405/405/405 408/408/408
f 411/411/411 410/410/410 409/409/409
f 411/411/411 409/409/409 412/412/412
f 415/415/415 414/414/414 413/413/413
f 415/415/415 413/413/413 416/416/416
f 419/419/419 418/418/418 417/417/417
f 419/419/419 417/417/417 420/420/420
f 423/423/423 422/422/422 421/421/421
f 423/423/423 421/421/421 424/424/424
f 427/427/427 426/426/426 425/425/425
f 427/427/427 425/425/425 428/428/428
f 431/431/431 430/430/430 429/429/429
f 431/431/431 429/429/429 432/432/432
f 435/435/435 434/434/434 433/433/433
f 435/435/435 433/433/433 436/436/436
f 439/439/439 438/438/438 437/437/437
f 439/439/439 437/437/437 440/440/440
f 443/443/443 442/442/442 441/441/441
f 443/443/443 441/441/441 444/444/444
f 447/447/447 446/446/446 445/445/445
f 447/447/447 445/445/445 448/448/448
f 451/451/451 450/450/450 449/449/449
f 451/451/451 449/449/449 452/452/452
f 455/455/455 454/454/454 453/453/453
f 455/455/455 453/453/453 456/456/456
f 459/459/459 458/458/458 457/457/457
f 459/459/459 457/457/457 460/460/460
f 463/463/463 462/462/462 461/461/461
f 463/463/463 461/461/461 464/464/464
f 467/467/467 466/466/466 465/465/465
f 467/467/467 465/465/465 468/468/468
f 471/471/471 470/470/470 469/469/469
f 471/471/471 469/469/469 472/472/472
f 475/475/475 474/474/474 473/473/473
f 475/475/475 473/473/473 476/476/476
f 479/479/479 478/478/478 477/477/477
f 479/479/479 477/477/477 480/480/480
f 483/483/483 482/482/482 481/481/481
f 483/483/483 481/481/481 484/484/484
f 487/487/487 486/486/486 485/485/485
f 487/487/487 485/485/485 488/488/488
f 491/491/491 490/490/490 489/489/489
f 491/491/491 489/489/489 492/492/492
f 495/495/495 494/494/494 493/493/493
f 495/495/495 493/493/493 496/496/496
f 499/499/499 498/498/498 497/497/497
f 499/499/499 497/497/497 500/500/500
f 503/503/503 502/502/502 501/501/501
f 503/503/503 501/501/501 504/504/504
f 507/507/507 506/506/506 505/505/505
f 507/507/507 505/505/505 508/508/508
f 511/511/511 510/510/510 509/509/509
f 511/511/511 509/509/509 512/512/512
f 515/515/515 514/514/514 513/513/513
f 515/515/515 513/513/513 516/516/516
f 519/519/519 518/518/518 517/517/517
f 519/519/519 517/517/517 520/520/520
f 523/523/523 522/522/522 521/521/521
f 523/523/523 521/521/521 524/524/524
f 527/527/527 526/526/526 525/525/525
f 527/527/527 525/525/525 528/528/528
f 531/531/531 530/530/530 529/529/529
f 531/531/531 529/529/529 532/532/532
f 535/535/535 534/534/534 533/533/533
f 535/535/535 533/533/533 536/536/536
f 539/539/539 538/538/538 537/537/537
f 539/539/539 537/537/537 540/540/540
f 543/543/543 542/542/542 541/541/541
f 543/543/543 541/541/541 544/544/544
f 547/547/547 546/546/546 545/545/545
f 547/547/547 545/545/545 548/548/548
f 551/551/551 550/550/550 549/549/549
f 551/551/551 549/549/549 552/552/552
f 555/555/555 554/554/554 553/553/553
f 555/555/555 553/553/553 556/556/556
f 559/559/559 558/558/558 557/557/557
f 559/559/559 557/557/557 560/560/560
f 563/563/563 562/562/562 561/561/561
f 563/563/563 561/561/561 564/564/564
f 567/567/567 566/566/566 565/565/565
f 567/567/567 565/565/565 568/568/568
f 571/571/571 570/570/570 569/569/569
f 571/571/571 569/569/569 572/572/572
f 575/575/575 574/574/574 573/573/573
f 575/575/575 573/573/573 576/576/576
f 579/579/579 578/578/578 577/577/577
f 579/579/579 577/577/577 580/580/580
f 583/583/583 582/582/582 581/581/581
f 583/583/583 581/581/581 584/584/584
f 587/587/587 586/586/586 585/585/585
f 587/587/587 585/585/585 588/588/588
f 591/591/591 590/590/590 589/589/589
f 591/591/591 589/589/589 592/592/592
f 595/595/595 594/594/594 593/593/593
f 595/595/595 593/593/593 596/596/596
f 599/599/599 598/598/598 597/597/597
f 599/599/599 597/597/597 600/600/600
f 603/603/603 602/602/602 601/601/601
f 603/603/603 601/601/601 604/604/604
f 607/607/607 606/606/606 605/605/605
f 607/607/607 605/605/605 608/608/608
f 611/611/611 610/610/610 609/609/609
f 611/611/611 609/609/609 612/612/612
f 615/615/615 614/614/614 613/613/613
f 615/615/615 613/613/613 616/616/616
f 619/619/619 618/618/618 617/617/617
f 619/619/619 617/617/617 620/620/620
f 623/623/623 622/622/622 621/621/621
f 623/623/623 621/621/621 624/624/624
f 627/627/627 626/626/626 625/625/625
f 627/627/627 625/625/625 628/628/628
f 631/631/631 630/630/630 629/629/629
f 631/631/631 629/629/629 632/632/632
f 635/635/635 634/634/634 633/633/633
f 635/635/635 633/633/633 636/636/636
f 639/639/639 638/638/638 637/637/637
f 639/639/639 637/637/637 640/640/640
f 643/643/643 642/642/642 641/641/641
f 643/643/643 641/641/641 644/644/644
f 647/647/647 646/646/646 645/645/645
f 647/647/647 645/645/645 648/648/648
f 651/651/651 650/650/650 649/649/649
f 651/651/651 649/649/649 652/652/652
f 655/655/655 654/654/654 653/653/653
f 655/655/655 653/653/653 656/656/656
